<?xml version='1.0' encoding='utf-8'?>
<svg xmlns="http://www.w3.org/2000/svg" version="1.1" id="Capa_1" x="0px" y="0px" viewBox="0 0 1920 1920" style="enable-background:new 0 0 1920 1920;"> <style type="text/css"> .st0{fill:#685348;} .st1{fill:#A48A7B;} .st2{fill:#634E42;} .st3{fill:#CBBBA0;} .st4{fill:none;stroke:#634E42;stroke-width:12;stroke-miterlimit:10;} </style> <rect x="714.9" y="626.8" class="st0" width="444.8" height="147"/> <polygon class="st1" points="1138.8,1583.9 738.8,1583.9 665.2,773.8 1212.5,773.8 "/> <rect x="626.8" y="710.8" class="st2" width="621.1" height="105"/> <circle class="st0" cx="937.3" cy="1178.8" r="179.3"/> <polygon class="st0" points="1169.4,1247.7 708.8,1253.9 695.7,1109.8 1181.9,1109.8 "/> <circle class="st3" cx="937.3" cy="1178.8" r="136.3"/> <path class="st4" d="M872.2,1091.9c-74.5,40.3-67.8,146.6,0.4,189.2"/> <ellipse class="st4" cx="867.3" cy="1186.5" rx="25.4" ry="33.7"/> <g> <path class="st4" d="M915.4,1266.3c0.9-20-0.4-40.2-3.8-59.9c-3.1-17.9-19.4-86.2,13.1-88.2"/> <line class="st4" x1="910.1" y1="1182.7" x2="929.9" y2="1177.7"/> </g> <g> <path class="st4" d="M945.8,1266.3c0.9-20-0.4-40.2-3.8-59.9c-3.1-17.9-19.4-86.2,13.1-88.2"/> <line class="st4" x1="940.5" y1="1182.7" x2="960.3" y2="1177.7"/> </g> <path class="st4" d="M1006.8,1220.7c-16.2-1.4-22.3-22.3-26.5-35.4c-3.7-11.7-8.2-32.6,9-33.1c5.4-0.2,10.4,3,13.9,7.1 c1.3,1.6,2.5,3.4,3.1,5.4c1.9,6.4-2.7,13.4-8.7,16.4c-6,3-13,3-19.7,3c-4.6,0-9.3,0-13.9-0.1"/> <path class="st4" d="M1054.5,1220.7c-16.2-1.4-22.3-22.3-26.5-35.4c-3.7-11.7-8.2-32.6,9-33.1c5.4-0.2,10.4,3,13.9,7.1 c1.3,1.6,2.5,3.4,3.1,5.4c1.9,6.4-2.7,13.4-8.7,16.4c-6,3-13,3-19.7,3c-4.6,0-9.3,0-13.9-0.1"/> <g> <path class="st2" d="M869.3,174.5c7,0.4,14,0.9,21,1.6c7,0.7,14,1.7,21,3c13.9,2.6,27.8,6.8,40.4,14.6l2.3,1.6 c0.8,0.5,1.5,1,2.3,1.6l2.2,1.7c0.7,0.6,1.4,1.2,2.1,1.9c1.4,1.2,2.7,2.7,4,4c0.6,0.7,1.2,1.5,1.8,2.2c0.6,0.7,1.2,1.5,1.7,2.3 c4.5,6.2,7.6,13.5,9,21.1l0.5,2.8c0.2,0.9,0.2,1.9,0.3,2.8l0.3,2.8l0.1,2.9c0,3.9-0.5,7.9-1.4,11.7c-1.8,7.7-5.5,14.9-10.2,21 c-4.7,6.1-10.2,11.4-16.2,15.9c-3,2.3-6,4.4-9.2,6.3c-3.1,2-6.3,3.8-9.6,5.5c-3.2,1.7-6.5,3.3-9.9,4.8c-3.3,1.5-6.7,2.8-10.1,4.1 c-1.7,0.6-3.4,1.2-5.1,1.8l-5.1,1.7c-3.3,1.1-6.4,2.2-9.5,3.4c-6.1,2.4-11.7,5.3-15.9,8.9c-2.1,1.8-3.7,3.8-4.9,6 c-1.2,2.2-2,4.6-2.2,6.9c-0.5,4.7,1.2,9.8,4.5,14.4c3.3,4.6,7.9,8.8,13,12c2.6,1.6,5.3,3.1,8.1,4.3c1.4,0.6,2.8,1.1,4.3,1.6 l1.1,0.3l1.2,0.3l2.4,0.7c6.4,1.7,13.1,2.9,20,4.3c6.9,1.4,14.1,2.9,21.3,5.4c1.8,0.7,3.6,1.2,5.4,2c0.9,0.4,1.8,0.7,2.7,1.1 l2.6,1.3c0.4,0.2,0.9,0.4,1.3,0.7l1.3,0.7l2.6,1.5l2.5,1.7l1.2,0.9c0.4,0.3,0.8,0.6,1.2,1c6.5,5.2,11.5,11.9,14.9,19.2 c3.4,7.3,5.1,15.2,5.4,23c0.3,7.9-0.9,15.8-3.6,23.3c-2.7,7.4-7.1,14.4-13,19.9c-1.5,1.4-3,2.6-4.5,3.8c-1.6,1.1-3.2,2.3-4.8,3.2 c-3.2,2-6.6,3.7-9.9,5.2c-6.7,3.1-13.3,5.5-19.5,8.1c-3.1,1.3-6.2,2.7-9.1,4.3c-2.9,1.6-5.6,3.2-8.2,5.2c-2.6,2-5,4.1-7.2,6.5 c-2.2,2.4-4.3,5-6.2,7.7c-7.5,10.9-11.7,24.3-12.3,37.8c-0.1,3.4,0,6.8,0.3,10.2c0.4,3.4,1,6.8,1.8,10.1c0.9,3.3,2,6.6,3.3,9.8 c1.4,3.2,3.1,6.2,5,9.2c-2.3-2.7-4.3-5.6-6.1-8.6c-1.7-3.1-3.3-6.3-4.5-9.6c-1.2-3.4-2.2-6.8-2.9-10.3c-0.7-3.5-1.1-7.1-1.3-10.7 c-0.2-3.6-0.1-7.2,0.2-10.8c0.4-3.6,1-7.2,1.8-10.8c0.9-3.5,2-7,3.3-10.5c1.4-3.4,3-6.7,4.8-10c1.9-3.2,4-6.2,6.4-9.2 c2.4-2.9,5-5.6,7.9-8.1c2.8-2.5,6-4.7,9.1-6.6c3.2-1.9,6.4-3.6,9.6-5.2c6.5-3.2,12.9-5.9,18.8-9c3-1.5,5.8-3.2,8.4-5 c1.3-0.9,2.5-1.9,3.8-2.8c1.2-1,2.4-2,3.4-3.1c8.4-8.5,12.2-21.2,11.3-33.4c-0.4-6.1-2-12.1-4.6-17.5c-2.6-5.4-6.4-10-10.9-13.5 c-0.3-0.2-0.6-0.4-0.9-0.7l-0.9-0.6l-1.9-1.2l-2-1.1l-1-0.6c-0.3-0.2-0.7-0.3-1-0.5l-2.1-1c-0.7-0.3-1.4-0.6-2.2-0.9 c-1.4-0.6-3-1.1-4.5-1.6c-6.1-2-12.7-3.3-19.5-4.6c-6.8-1.3-13.9-2.6-21.1-4.4l-2.7-0.7l-1.4-0.4l-1.4-0.4 c-1.9-0.6-3.8-1.3-5.6-2.1c-3.6-1.5-7.1-3.4-10.5-5.5c-6.6-4.3-12.7-9.6-17.5-16.4c-2.4-3.4-4.4-7.3-5.7-11.5 c-0.7-2.1-1.1-4.4-1.4-6.6c-0.2-2.3-0.3-4.6,0-6.9c0.5-4.6,2-9,4.2-12.9c2.2-4,5.2-7.4,8.4-10.1c3.2-2.8,6.7-4.9,10.2-6.8 c3.5-1.8,7-3.3,10.5-4.6c3.5-1.3,7-2.4,10.4-3.5l4.9-1.5c1.6-0.5,3.2-1,4.8-1.6c6.4-2.2,12.6-4.7,18.6-7.6c6-2.9,11.8-6.2,17.1-10 c5.4-3.8,10.2-8.1,14.3-12.9c4-4.9,7.1-10.3,8.8-16.1c0.8-2.9,1.3-6,1.5-9l0.1-2.3l-0.1-2.4c-0.1-0.8,0-1.6-0.1-2.4l-0.3-2.4 l-0.1-1.2l-0.2-1.2l-0.5-2.3c-0.2-0.8-0.4-1.5-0.6-2.3c-0.2-0.7-0.4-1.5-0.7-2.2c-0.6-1.5-1.1-3-1.9-4.3c-0.4-0.7-0.7-1.4-1.1-2.1 l-1.2-2c-0.4-0.7-0.9-1.3-1.3-2c-0.5-0.6-0.9-1.3-1.4-1.9c-1.1-1.2-2-2.5-3.2-3.6c-2.2-2.4-4.8-4.4-7.4-6.5 c-5.3-3.9-11.3-7.2-17.6-9.9c-6.3-2.7-12.8-4.9-19.5-6.8c-6.7-1.9-13.5-3.5-20.3-4.9C883.1,177,876.2,175.8,869.3,174.5z"/> </g> </svg>